<svg width="39" height="47" viewBox="0 0 39 47" fill="none" xmlns="http://www.w3.org/2000/svg">
<path d="M18.4842 3.78574L11.2131 7.97118C10.2241 8.55022 9.61374 9.6019 9.61374 10.7376V21.7561C9.61374 23.3398 10.9051 24.6401 12.4989 24.6401H14.619H25.5379H27.6592C29.2519 24.6401 30.5432 23.3398 30.5432 21.7561V10.7376C30.5432 9.6019 29.9328 8.55022 28.9439 7.97118L21.6728 3.78574C20.6861 3.2179 19.4709 3.2179 18.4842 3.78574Z" fill="#E33B58"/>
<path d="M16.5678 24.6401C16.5678 24.6401 16.5678 23.7654 16.5678 22.6891V18.8475C16.5678 17.7129 17.4906 16.79 18.6286 16.79H21.5294C22.6673 16.79 23.589 17.7129 23.589 18.8475V22.6891C23.589 23.7654 23.589 24.6401 23.589 24.6401H16.5678Z" fill="white"/>
<path d="M1.59883 32.7665H2.84683V36.6405H7.64383V32.7665H8.87883V41.9185H7.64383V37.7195H2.84683V41.9185H1.59883V32.7665ZM14.1877 42.1005C13.6677 42.1005 13.204 42.0095 12.7967 41.8275C12.3893 41.6455 12.047 41.3941 11.7697 41.0735C11.501 40.7528 11.293 40.3758 11.1457 39.9425C10.9983 39.5091 10.9247 39.0455 10.9247 38.5515C10.9247 38.0575 10.9983 37.5938 11.1457 37.1605C11.293 36.7271 11.5053 36.3545 11.7827 36.0425C12.06 35.7218 12.4023 35.4705 12.8097 35.2885C13.217 35.1065 13.6763 35.0155 14.1877 35.0155C14.699 35.0155 15.154 35.1065 15.5527 35.2885C15.96 35.4705 16.3023 35.7218 16.5797 36.0425C16.8657 36.3545 17.0823 36.7271 17.2297 37.1605C17.377 37.5938 17.4507 38.0575 17.4507 38.5515C17.4507 39.0455 17.377 39.5091 17.2297 39.9425C17.0823 40.3758 16.87 40.7528 16.5927 41.0735C16.324 41.3941 15.986 41.6455 15.5787 41.8275C15.1713 42.0095 14.7077 42.1005 14.1877 42.1005ZM16.2417 38.7985V38.3045C16.2417 37.5851 16.038 37.0261 15.6307 36.6275C15.232 36.2201 14.751 36.0165 14.1877 36.0165C13.6243 36.0165 13.139 36.2245 12.7317 36.6405C12.3243 37.0478 12.1207 37.6025 12.1207 38.3045V38.7985C12.1207 39.5005 12.3243 40.0595 12.7317 40.4755C13.139 40.8915 13.6243 41.0995 14.1877 41.0995C14.751 41.0995 15.232 40.9001 15.6307 40.5015C16.038 40.0941 16.2417 39.5265 16.2417 38.7985ZM19.2964 41.9185V35.1975H20.4274V36.2245H20.4404C20.6137 35.8258 20.8781 35.5268 21.2334 35.3275C21.5974 35.1195 22.0047 35.0155 22.4554 35.0155C22.9494 35.0155 23.3871 35.1325 23.7684 35.3665C24.1497 35.6005 24.4271 35.9471 24.6004 36.4065H24.6134C24.8041 35.9385 25.0944 35.5918 25.4844 35.3665C25.8744 35.1325 26.3077 35.0155 26.7844 35.0155C27.1137 35.0155 27.4214 35.0718 27.7074 35.1845C28.0021 35.2971 28.2534 35.4618 28.4614 35.6785C28.6781 35.8865 28.8471 36.1508 28.9684 36.4715C29.0897 36.7835 29.1504 37.1431 29.1504 37.5505V41.9185H27.9544V37.6545C27.9544 37.1085 27.8027 36.7011 27.4994 36.4325C27.1961 36.1638 26.8451 36.0295 26.4464 36.0295C26.0217 36.0295 25.6447 36.1768 25.3154 36.4715C24.9861 36.7661 24.8214 37.2125 24.8214 37.8105V41.9185H23.6254V37.6545C23.6254 37.1085 23.4737 36.7011 23.1704 36.4325C22.8671 36.1638 22.5117 36.0295 22.1044 36.0295C21.6797 36.0295 21.3027 36.1768 20.9734 36.4715C20.6527 36.7661 20.4924 37.2125 20.4924 37.8105V41.9185H19.2964ZM34.1747 42.1005C33.6547 42.1005 33.191 42.0095 32.7837 41.8275C32.3763 41.6455 32.034 41.3941 31.7567 41.0735C31.488 40.7528 31.28 40.3758 31.1327 39.9425C30.994 39.5091 30.9247 39.0455 30.9247 38.5515C30.9247 38.0575 30.9983 37.5938 31.1457 37.1605C31.293 36.7271 31.501 36.3545 31.7697 36.0425C32.047 35.7218 32.385 35.4705 32.7837 35.2885C33.191 35.1065 33.6417 35.0155 34.1357 35.0155C34.6383 35.0155 35.0847 35.1021 35.4747 35.2755C35.8647 35.4488 36.1897 35.6871 36.4497 35.9905C36.7183 36.2938 36.922 36.6535 37.0607 37.0695C37.1993 37.4768 37.2687 37.9188 37.2687 38.3955V38.8245H32.1207V38.8635C32.1207 39.5655 32.3157 40.1245 32.7057 40.5405C33.1043 40.9565 33.6027 41.1645 34.2007 41.1645C34.7207 41.1645 35.1237 41.0388 35.4097 40.7875C35.7043 40.5361 35.8777 40.2631 35.9297 39.9685H37.1387C37.0173 40.5925 36.6923 41.1038 36.1637 41.5025C35.6437 41.9011 34.9807 42.1005 34.1747 42.1005ZM34.1357 35.9385C33.6157 35.9385 33.165 36.1205 32.7837 36.4845C32.4023 36.8398 32.1857 37.3338 32.1337 37.9665H36.0597C36.0337 37.3165 35.843 36.8181 35.4877 36.4715C35.1323 36.1161 34.6817 35.9385 34.1357 35.9385Z" fill="#C7223E"/>
</svg>
