<svg width="39" height="46" viewBox="0 0 39 46" fill="none" xmlns="http://www.w3.org/2000/svg">
<path opacity="0.3" fill-rule="evenodd" clip-rule="evenodd" d="M29.338 16.1993C28.3475 15.2111 26.755 15.0968 25.6303 15.9344C25.3177 16.1724 25.0038 16.4303 24.6842 16.6928C24.1918 17.0988 23.6902 17.5059 23.1768 17.8466C23.1967 17.7078 23.22 17.5701 23.22 17.4254C23.22 16.0441 22.2902 14.8833 20.9053 14.5344C19.5298 14.1903 18.0447 13.8788 16.4335 13.9138C14.12 13.9721 12.4342 15.1236 10.8044 16.2366L10.228 16.6286C9.82671 16.8993 9.71938 17.4418 9.98888 17.8431C10.2584 18.2456 10.8032 18.3506 11.2034 18.0823L11.7914 17.6821C13.3419 16.6228 14.6812 15.7093 16.4767 15.6638C17.8802 15.6241 19.2242 15.9169 20.4795 16.2319C21.0908 16.3859 21.47 16.8433 21.47 17.4254C21.47 18.1208 20.9205 18.6271 20.1622 18.6271H19.7643C19.5462 18.6213 19.3257 18.6213 19.1028 18.6271H18.4705C18.0575 18.6271 17.7273 18.9199 17.6352 19.3049C17.6282 19.3294 17.6259 19.3551 17.62 19.3808C17.6142 19.4216 17.5955 19.4589 17.5955 19.5021C17.5955 19.5278 17.6084 19.5499 17.6107 19.5756C17.6119 19.6106 17.6002 19.6433 17.6049 19.6783C17.6142 19.7378 17.6445 19.7868 17.6644 19.8404L17.6655 19.8439C17.8055 20.2254 18.1823 20.4786 18.6012 20.4133C18.7785 20.3876 18.9652 20.3818 19.1518 20.3771H19.7655C19.8658 20.3806 19.9615 20.3806 20.0642 20.3841C20.4048 20.3981 20.7432 20.4098 21.0827 20.4016C22.989 20.3561 24.4812 19.1276 25.7972 18.0438C26.0982 17.7964 26.3933 17.5526 26.6827 17.3333C27.112 17.0124 27.7222 17.0591 28.099 17.4348C28.5202 17.8606 28.5202 18.5548 28.099 18.9783L27.8563 19.2233C26.3327 20.7586 25.0167 22.0851 23.0672 22.8388C20.2345 23.9378 17.5897 23.4174 14.4467 22.7968C13.1914 22.5436 12.0609 22.5238 10.7134 22.5238C10.2304 22.5238 9.83838 22.9158 9.83838 23.3988C9.83838 23.8818 10.2304 24.2738 10.7134 24.2738C12.0037 24.2738 13.0024 24.2913 14.19 24.5304C15.9949 24.8863 17.7437 25.2304 19.5205 25.2304C20.8843 25.2304 22.2645 25.0274 23.6995 24.4709C25.9967 23.5831 27.5028 22.0629 29.0988 20.4553L29.3415 20.2103C30.4358 19.1066 30.4358 17.3076 29.338 16.1993Z" fill="#1C1939"/>
<path opacity="0.5" fill-rule="evenodd" clip-rule="evenodd" d="M19.8074 10.0952C19.7444 9.78256 19.7094 9.46055 19.7094 9.13039C19.7094 6.65939 21.5434 4.62822 23.9175 4.27822C23.8114 4.13705 23.697 4.00172 23.5699 3.87689C22.8605 3.16289 21.9167 2.76855 20.9134 2.76855C19.91 2.76855 18.9674 3.16289 18.2604 3.87572C17.5499 4.58505 17.1591 5.52655 17.1602 6.52989C17.1602 7.53205 17.5511 8.47355 18.2604 9.18055C18.6979 9.61805 19.2334 9.91672 19.8074 10.0952Z" fill="#1C1939"/>
<path opacity="0.5" fill-rule="evenodd" clip-rule="evenodd" d="M20.8764 9.13033C20.8764 11.1953 22.5599 12.8742 24.6307 12.8742C26.7004 12.8742 28.3851 11.1953 28.3851 9.13033C28.3851 7.05833 26.7004 5.3725 24.6307 5.3725C22.5599 5.3725 20.8764 7.05833 20.8764 9.13033Z" fill="#1C1939"/>
<path d="M1.51192 31.7665H2.75992V39.8395H7.42692V40.9185H1.51192V31.7665ZM11.6632 41.1005C11.1432 41.1005 10.6796 41.0095 10.2722 40.8275C9.86491 40.6455 9.52258 40.3941 9.24525 40.0735C8.97658 39.7528 8.76858 39.3758 8.62125 38.9425C8.47391 38.5091 8.40025 38.0455 8.40025 37.5515C8.40025 37.0575 8.47391 36.5938 8.62125 36.1605C8.76858 35.7271 8.98091 35.3545 9.25825 35.0425C9.53558 34.7218 9.87791 34.4705 10.2852 34.2885C10.6926 34.1065 11.1519 34.0155 11.6632 34.0155C12.1746 34.0155 12.6296 34.1065 13.0282 34.2885C13.4356 34.4705 13.7779 34.7218 14.0552 35.0425C14.3412 35.3545 14.5579 35.7271 14.7052 36.1605C14.8526 36.5938 14.9262 37.0575 14.9262 37.5515C14.9262 38.0455 14.8526 38.5091 14.7052 38.9425C14.5579 39.3758 14.3456 39.7528 14.0682 40.0735C13.7996 40.3941 13.4616 40.6455 13.0542 40.8275C12.6469 41.0095 12.1832 41.1005 11.6632 41.1005ZM13.7172 37.7985V37.3045C13.7172 36.5851 13.5136 36.0261 13.1062 35.6275C12.7076 35.2201 12.2266 35.0165 11.6632 35.0165C11.0999 35.0165 10.6146 35.2245 10.2072 35.6405C9.79991 36.0478 9.59625 36.6025 9.59625 37.3045V37.7985C9.59625 38.5005 9.79991 39.0595 10.2072 39.4755C10.6146 39.8915 11.0999 40.0995 11.6632 40.0995C12.2266 40.0995 12.7076 39.9001 13.1062 39.5015C13.5136 39.0941 13.7172 38.5265 13.7172 37.7985ZM16.5005 36.0695C16.5612 35.4715 16.8255 34.9818 17.2935 34.6005C17.7615 34.2105 18.4159 34.0155 19.2565 34.0155C20.0192 34.0155 20.6475 34.2018 21.1415 34.5745C21.6355 34.9385 21.8825 35.4975 21.8825 36.2515V39.4365C21.8825 39.6445 21.9215 39.7831 21.9995 39.8525C22.0862 39.9218 22.2119 39.9565 22.3765 39.9565H22.7925V40.9185H22.0255C21.6009 40.9185 21.2975 40.8275 21.1155 40.6455C20.9335 40.4548 20.8469 40.1818 20.8555 39.8265V39.6965H20.8425C20.6779 40.1125 20.3962 40.4505 19.9975 40.7105C19.5989 40.9705 19.1179 41.1005 18.5545 41.1005C17.8959 41.1005 17.3455 40.9271 16.9035 40.5805C16.4702 40.2251 16.2535 39.7355 16.2535 39.1115C16.2535 38.4961 16.4702 38.0238 16.9035 37.6945C17.3369 37.3651 17.9045 37.1441 18.6065 37.0315L19.6205 36.8625C19.9672 36.8018 20.2272 36.7108 20.4005 36.5895C20.5739 36.4595 20.6605 36.2645 20.6605 36.0045C20.6605 35.7358 20.5522 35.4888 20.3355 35.2635C20.1275 35.0381 19.7592 34.9255 19.2305 34.9255C18.7539 34.9255 18.3855 35.0295 18.1255 35.2375C17.8655 35.4368 17.7182 35.7141 17.6835 36.0695H16.5005ZM20.6995 38.1235V37.2395C20.6389 37.3261 20.5305 37.4128 20.3745 37.4995C20.2272 37.5861 20.0365 37.6468 19.8025 37.6815L18.8145 37.8505C18.3899 37.9198 18.0519 38.0498 17.8005 38.2405C17.5492 38.4225 17.4235 38.6738 17.4235 38.9945V39.0725C17.4235 39.4191 17.5492 39.6878 17.8005 39.8785C18.0519 40.0691 18.3769 40.1645 18.7755 40.1645C19.3389 40.1645 19.7982 39.9781 20.1535 39.6055C20.5175 39.2241 20.6995 38.7301 20.6995 38.1235ZM25.3908 36.9795V40.9185H24.1948V34.1975H25.3258V35.3415H25.3388C25.5295 34.8995 25.8198 34.5701 26.2098 34.3535C26.5998 34.1281 27.0418 34.0155 27.5358 34.0155C27.8825 34.0155 28.2075 34.0761 28.5108 34.1975C28.8228 34.3101 29.0915 34.4791 29.3168 34.7045C29.5422 34.9298 29.7198 35.2115 29.8498 35.5495C29.9798 35.8875 30.0448 36.2775 30.0448 36.7195V40.9185H28.8488V36.8235C28.8488 36.2255 28.6798 35.7791 28.3418 35.4845C28.0125 35.1811 27.6268 35.0295 27.1848 35.0295C26.9508 35.0295 26.7255 35.0685 26.5088 35.1465C26.2922 35.2245 26.1015 35.3458 25.9368 35.5105C25.7722 35.6665 25.6378 35.8701 25.5338 36.1215C25.4385 36.3641 25.3908 36.6501 25.3908 36.9795ZM31.7071 38.9555H32.9421C32.9507 39.3801 33.1154 39.6965 33.4361 39.9045C33.7567 40.1038 34.1597 40.2035 34.6451 40.2035C35.1131 40.2035 35.4944 40.1081 35.7891 39.9175C36.0837 39.7181 36.2311 39.4451 36.2311 39.0985C36.2311 38.7778 36.1097 38.5438 35.8671 38.3965C35.6331 38.2405 35.3124 38.1321 34.9051 38.0715L33.8781 37.9285C33.2974 37.8418 32.8251 37.6468 32.4611 37.3435C32.0971 37.0401 31.9151 36.6025 31.9151 36.0305C31.9151 35.4065 32.1664 34.9125 32.6691 34.5485C33.1804 34.1758 33.8261 33.9895 34.6061 33.9895C35.0307 33.9895 35.4077 34.0458 35.7371 34.1585C36.0664 34.2625 36.3394 34.4098 36.5561 34.6005C36.7814 34.7825 36.9547 34.9991 37.0761 35.2505C37.2061 35.4931 37.2754 35.7488 37.2841 36.0175H36.0751C36.0577 35.6795 35.9191 35.4108 35.6591 35.2115C35.4077 35.0035 35.0481 34.8995 34.5801 34.8995C34.1294 34.8995 33.7697 34.9991 33.5011 35.1985C33.2411 35.3891 33.1111 35.6361 33.1111 35.9395C33.1111 36.2255 33.2064 36.4465 33.3971 36.6025C33.5964 36.7498 33.8867 36.8538 34.2681 36.9145L35.2951 37.0575C35.9537 37.1441 36.4737 37.3478 36.8551 37.6685C37.2451 37.9891 37.4401 38.4355 37.4401 39.0075C37.4401 39.6575 37.1757 40.1731 36.6471 40.5545C36.1184 40.9271 35.4381 41.1135 34.6061 41.1135C33.7307 41.1135 33.0331 40.9185 32.5131 40.5285C31.9931 40.1298 31.7244 39.6055 31.7071 38.9555Z" fill="#8A8B8F"/>
</svg>
