<svg width="40" height="40" viewBox="0 0 40 40" fill="none" xmlns="http://www.w3.org/2000/svg">
<path d="M31.6667 19.1667H28.3333V13.3334C28.3333 8.73835 24.595 5.00002 20 5.00002C15.405 5.00002 11.6667 8.73835 11.6667 13.3334V19.1667H8.33334V13.3334C8.33334 6.90002 13.5667 1.66669 20 1.66669C26.4333 1.66669 31.6667 6.90002 31.6667 13.3334V19.1667Z" fill="#6C19FF"/>
<path d="M35 14.1667H5V35.8334H35V14.1667Z" fill="#F5BC00"/>
<path d="M11.6667 14.1667H8.33334V17.5H11.6667V14.1667Z" fill="#EB7900"/>
<path d="M31.6667 14.1667H28.3333V17.5H31.6667V14.1667Z" fill="#EB7900"/>
<path d="M13.3333 27.5C14.2538 27.5 15 26.7538 15 25.8334C15 24.9129 14.2538 24.1667 13.3333 24.1667C12.4128 24.1667 11.6667 24.9129 11.6667 25.8334C11.6667 26.7538 12.4128 27.5 13.3333 27.5Z" fill="#6C19FF"/>
<path d="M26.6667 27.5C27.5871 27.5 28.3333 26.7538 28.3333 25.8334C28.3333 24.9129 27.5871 24.1667 26.6667 24.1667C25.7462 24.1667 25 24.9129 25 25.8334C25 26.7538 25.7462 27.5 26.6667 27.5Z" fill="#6C19FF"/>
<path d="M20 27.5C20.9205 27.5 21.6666 26.7538 21.6666 25.8334C21.6666 24.9129 20.9205 24.1667 20 24.1667C19.0795 24.1667 18.3333 24.9129 18.3333 25.8334C18.3333 26.7538 19.0795 27.5 20 27.5Z" fill="#6C19FF"/>
</svg>
