<svg width="45" height="47" viewBox="0 0 45 47" fill="none" xmlns="http://www.w3.org/2000/svg">
<path opacity="0.5" d="M22.9963 17.7037C17.9644 17.7037 13.6664 18.4971 13.6664 21.6704C13.6664 24.8449 17.9376 25.6662 22.9963 25.6662C28.0281 25.6662 32.3261 24.8741 32.3261 21.6996C32.3261 18.5251 28.0561 17.7037 22.9963 17.7037Z" fill="#1C1939"/>
<path opacity="0.2" d="M22.9963 14.681C26.4239 14.681 29.1703 11.9335 29.1703 8.50701C29.1703 5.08051 26.4239 2.33301 22.9963 2.33301C19.5698 2.33301 16.8223 5.08051 16.8223 8.50701C16.8223 11.9335 19.5698 14.681 22.9963 14.681Z" fill="#1C1939"/>
<path d="M1.71016 41.9185V32.7665H5.61016C6.57216 32.7665 7.31749 33.0135 7.84616 33.5075C8.37483 34.0015 8.63916 34.6471 8.63916 35.4445C8.63916 36.2418 8.37483 36.8875 7.84616 37.3815C7.31749 37.8755 6.57216 38.1225 5.61016 38.1225H2.95816V41.9185H1.71016ZM7.37816 35.5225V35.3665C7.37816 34.8985 7.22649 34.5258 6.92316 34.2485C6.61983 33.9711 6.16916 33.8325 5.57116 33.8325H2.95816V37.0565H5.57116C6.16916 37.0565 6.61983 36.9178 6.92316 36.6405C7.22649 36.3631 7.37816 35.9905 7.37816 35.5225ZM10.2583 41.9185V35.1975H11.4023V36.3285H11.4153C11.5193 36.0338 11.7187 35.7651 12.0133 35.5225C12.308 35.2798 12.7413 35.1585 13.3133 35.1585H14.2103V36.2635H13.0923C12.4597 36.2635 12.0263 36.4325 11.7923 36.7705C11.567 37.1085 11.4543 37.5245 11.4543 38.0185V41.9185H10.2583ZM18.3195 42.1005C17.7995 42.1005 17.3358 42.0095 16.9285 41.8275C16.5212 41.6455 16.1788 41.3941 15.9015 41.0735C15.6328 40.7528 15.4248 40.3758 15.2775 39.9425C15.1302 39.5091 15.0565 39.0455 15.0565 38.5515C15.0565 38.0575 15.1302 37.5938 15.2775 37.1605C15.4248 36.7271 15.6372 36.3545 15.9145 36.0425C16.1918 35.7218 16.5342 35.4705 16.9415 35.2885C17.3488 35.1065 17.8082 35.0155 18.3195 35.0155C18.8308 35.0155 19.2858 35.1065 19.6845 35.2885C20.0918 35.4705 20.4342 35.7218 20.7115 36.0425C20.9975 36.3545 21.2142 36.7271 21.3615 37.1605C21.5088 37.5938 21.5825 38.0575 21.5825 38.5515C21.5825 39.0455 21.5088 39.5091 21.3615 39.9425C21.2142 40.3758 21.0018 40.7528 20.7245 41.0735C20.4558 41.3941 20.1178 41.6455 19.7105 41.8275C19.3032 42.0095 18.8395 42.1005 18.3195 42.1005ZM20.3735 38.7985V38.3045C20.3735 37.5851 20.1698 37.0261 19.7625 36.6275C19.3638 36.2201 18.8828 36.0165 18.3195 36.0165C17.7562 36.0165 17.2708 36.2245 16.8635 36.6405C16.4562 37.0478 16.2525 37.6025 16.2525 38.3045V38.7985C16.2525 39.5005 16.4562 40.0595 16.8635 40.4755C17.2708 40.8915 17.7562 41.0995 18.3195 41.0995C18.8828 41.0995 19.3638 40.9001 19.7625 40.5015C20.1698 40.0941 20.3735 39.5265 20.3735 38.7985ZM23.9918 41.9185V36.1855H22.4708V35.1975H23.9918V33.8585C23.9918 33.3298 24.1218 32.9311 24.3818 32.6625C24.6505 32.3938 25.0708 32.2595 25.6428 32.2595H27.5278V33.2215H25.8508C25.6081 33.2215 25.4348 33.2735 25.3308 33.3775C25.2268 33.4815 25.1748 33.6548 25.1748 33.8975V35.1975H27.5148V36.1855H25.1878V41.9185H23.9918ZM30.0636 34.0535H29.9986C29.7559 34.0535 29.5566 33.9755 29.4006 33.8195C29.2446 33.6548 29.1666 33.4641 29.1666 33.2475C29.1666 33.0135 29.2446 32.8228 29.4006 32.6755C29.5566 32.5195 29.7559 32.4415 29.9986 32.4415H30.0636C30.2976 32.4415 30.4926 32.5195 30.6486 32.6755C30.8046 32.8228 30.8826 33.0135 30.8826 33.2475C30.8826 33.4641 30.8046 33.6548 30.6486 33.8195C30.4926 33.9755 30.2976 34.0535 30.0636 34.0535ZM28.3476 36.1725V35.1975H30.6226V41.9185H29.4266V36.1725H28.3476ZM32.8134 40.3195V32.2725H34.0094V40.1765C34.0094 40.4365 34.0658 40.6271 34.1784 40.7485C34.2998 40.8611 34.4904 40.9175 34.7504 40.9175H35.9334V41.9185H34.4644C33.9011 41.9185 33.4851 41.7841 33.2164 41.5155C32.9478 41.2468 32.8134 40.8481 32.8134 40.3195ZM40.0633 42.1005C39.5433 42.1005 39.0797 42.0095 38.6723 41.8275C38.265 41.6455 37.9227 41.3941 37.6453 41.0735C37.3767 40.7528 37.1687 40.3758 37.0213 39.9425C36.8827 39.5091 36.8133 39.0455 36.8133 38.5515C36.8133 38.0575 36.887 37.5938 37.0343 37.1605C37.1817 36.7271 37.3897 36.3545 37.6583 36.0425C37.9357 35.7218 38.2737 35.4705 38.6723 35.2885C39.0797 35.1065 39.5303 35.0155 40.0243 35.0155C40.527 35.0155 40.9733 35.1021 41.3633 35.2755C41.7533 35.4488 42.0783 35.6871 42.3383 35.9905C42.607 36.2938 42.8107 36.6535 42.9493 37.0695C43.088 37.4768 43.1573 37.9188 43.1573 38.3955V38.8245H38.0093V38.8635C38.0093 39.5655 38.2043 40.1245 38.5943 40.5405C38.993 40.9565 39.4913 41.1645 40.0893 41.1645C40.6093 41.1645 41.0123 41.0388 41.2983 40.7875C41.593 40.5361 41.7663 40.2631 41.8183 39.9685H43.0273C42.906 40.5925 42.581 41.1038 42.0523 41.5025C41.5323 41.9011 40.8693 42.1005 40.0633 42.1005ZM40.0243 35.9385C39.5043 35.9385 39.0537 36.1205 38.6723 36.4845C38.291 36.8398 38.0743 37.3338 38.0223 37.9665H41.9483C41.9223 37.3165 41.7317 36.8181 41.3763 36.4715C41.021 36.1161 40.5703 35.9385 40.0243 35.9385Z" fill="#8A8B8F"/>
</svg>
