<svg width="51" height="46" viewBox="0 0 51 46" fill="none" xmlns="http://www.w3.org/2000/svg">
<path opacity="0.2" fill-rule="evenodd" clip-rule="evenodd" d="M31.6955 12.9784C31.1643 12.0912 30.6019 11.212 30.0409 10.3361C29.962 10.2127 29.8143 10.1518 29.6708 10.1818C28.1207 10.5062 26.5626 10.672 25.0035 10.672C23.4431 10.672 21.8837 10.5062 20.3334 10.1817C20.1902 10.1517 20.0428 10.2123 19.9637 10.3353C19.4009 11.2102 18.8393 12.0876 18.3057 12.9761C16.9384 15.2429 15.5734 17.8971 16.6992 20.7053C18.2486 24.5681 23.0143 25.0558 25.0082 25.0849C26.9857 25.0558 31.7515 24.5693 33.3008 20.7053C34.4267 17.8983 33.0617 15.2429 31.6955 12.9784Z" fill="#1C1939"/>
<path opacity="0.5" fill-rule="evenodd" clip-rule="evenodd" d="M20.1045 8.26309C20.1456 8.33995 20.226 8.36982 20.3107 8.39048C23.3675 9.08797 26.4659 9.10074 29.5243 8.42879C29.632 8.40512 29.721 8.33273 29.7658 8.23193C30.0478 7.59696 31.0919 5.24629 31.324 4.71665C31.4092 4.52415 31.3835 4.30131 31.2564 4.13215C31.1304 3.96415 30.9227 3.87548 30.715 3.90348C30.2227 3.96881 28.8635 4.13798 28.4937 4.15665C26.8697 4.25231 25.3915 3.76231 24.1467 3.27231C22.42 2.61081 20.7832 2.86631 19.27 4.03765C18.8174 4.39815 18.6365 4.55448 18.6365 4.55448C18.4312 4.73415 18.3764 5.03165 18.5047 5.27081L20.1045 8.26309Z" fill="#1C1939"/>
<path d="M4.47433 41.1005C3.34767 41.1005 2.46367 40.8405 1.82233 40.3205C1.18967 39.7918 0.860332 39.1245 0.834332 38.3185H2.08233C2.10833 38.8905 2.33367 39.3325 2.75833 39.6445C3.19167 39.9478 3.768 40.0995 4.48733 40.0995C5.18933 40.0995 5.744 39.9435 6.15133 39.6315C6.55867 39.3195 6.76233 38.9165 6.76233 38.4225C6.76233 37.9718 6.61067 37.6381 6.30733 37.4215C6.004 37.1961 5.57067 37.0401 5.00733 36.9535L3.69433 36.7455C2.93167 36.6328 2.30333 36.3815 1.80933 35.9915C1.31533 35.5928 1.06833 35.0035 1.06833 34.2235C1.06833 33.8595 1.142 33.5171 1.28933 33.1965C1.44533 32.8671 1.66633 32.5855 1.95233 32.3515C2.23833 32.1088 2.59367 31.9181 3.01833 31.7795C3.443 31.6408 3.92833 31.5715 4.47433 31.5715C5.029 31.5715 5.51433 31.6451 5.93033 31.7925C6.355 31.9311 6.706 32.1175 6.98333 32.3515C7.26933 32.5855 7.486 32.8585 7.63333 33.1705C7.78067 33.4825 7.863 33.8118 7.88033 34.1585H6.63233C6.59767 33.6991 6.40267 33.3221 6.04733 33.0275C5.692 32.7241 5.16333 32.5725 4.46133 32.5725C3.75933 32.5725 3.22633 32.7241 2.86233 33.0275C2.49833 33.3308 2.31633 33.7035 2.31633 34.1455C2.31633 34.5961 2.47233 34.9298 2.78433 35.1465C3.09633 35.3631 3.51233 35.5148 4.03233 35.6015L5.31933 35.7965C6.108 35.9265 6.75367 36.1865 7.25633 36.5765C7.76767 36.9665 8.02333 37.5558 8.02333 38.3445C8.02333 39.1765 7.694 39.8438 7.03533 40.3465C6.38533 40.8491 5.53167 41.1005 4.47433 41.1005ZM9.63529 36.0695C9.69595 35.4715 9.96029 34.9818 10.4283 34.6005C10.8963 34.2105 11.5506 34.0155 12.3913 34.0155C13.154 34.0155 13.7823 34.2018 14.2763 34.5745C14.7703 34.9385 15.0173 35.4975 15.0173 36.2515V39.4365C15.0173 39.6445 15.0563 39.7831 15.1343 39.8525C15.221 39.9218 15.3466 39.9565 15.5113 39.9565H15.9273V40.9185H15.1603C14.7356 40.9185 14.4323 40.8275 14.2503 40.6455C14.0683 40.4548 13.9816 40.1818 13.9903 39.8265V39.6965H13.9773C13.8126 40.1125 13.531 40.4505 13.1323 40.7105C12.7336 40.9705 12.2526 41.1005 11.6893 41.1005C11.0306 41.1005 10.4803 40.9271 10.0383 40.5805C9.60495 40.2251 9.38829 39.7355 9.38829 39.1115C9.38829 38.4961 9.60495 38.0238 10.0383 37.6945C10.4716 37.3651 11.0393 37.1441 11.7413 37.0315L12.7553 36.8625C13.102 36.8018 13.362 36.7108 13.5353 36.5895C13.7086 36.4595 13.7953 36.2645 13.7953 36.0045C13.7953 35.7358 13.687 35.4888 13.4703 35.2635C13.2623 35.0381 12.894 34.9255 12.3653 34.9255C11.8886 34.9255 11.5203 35.0295 11.2603 35.2375C11.0003 35.4368 10.853 35.7141 10.8183 36.0695H9.63529ZM13.8343 38.1235V37.2395C13.7736 37.3261 13.6653 37.4128 13.5093 37.4995C13.362 37.5861 13.1713 37.6468 12.9373 37.6815L11.9493 37.8505C11.5246 37.9198 11.1866 38.0498 10.9353 38.2405C10.684 38.4225 10.5583 38.6738 10.5583 38.9945V39.0725C10.5583 39.4191 10.684 39.6878 10.9353 39.8785C11.1866 40.0691 11.5116 40.1645 11.9103 40.1645C12.4736 40.1645 12.933 39.9781 13.2883 39.6055C13.6523 39.2241 13.8343 38.7301 13.8343 38.1235ZM22.6168 34.1975L20.0298 40.9315H18.7688L16.1298 34.1975H17.4428L19.4188 39.5275H19.4318L21.3948 34.1975H22.6168ZM25.1202 33.0535H25.0552C24.8126 33.0535 24.6132 32.9755 24.4572 32.8195C24.3012 32.6548 24.2232 32.4641 24.2232 32.2475C24.2232 32.0135 24.3012 31.8228 24.4572 31.6755C24.6132 31.5195 24.8126 31.4415 25.0552 31.4415H25.1202C25.3542 31.4415 25.5492 31.5195 25.7052 31.6755C25.8612 31.8228 25.9392 32.0135 25.9392 32.2475C25.9392 32.4641 25.8612 32.6548 25.7052 32.8195C25.5492 32.9755 25.3542 33.0535 25.1202 33.0535ZM23.4042 35.1725V34.1975H25.6792V40.9185H24.4832V35.1725H23.4042ZM29.1311 36.9795V40.9185H27.9351V34.1975H29.0661V35.3415H29.0791C29.2697 34.8995 29.5601 34.5701 29.9501 34.3535C30.3401 34.1281 30.7821 34.0155 31.2761 34.0155C31.6227 34.0155 31.9477 34.0761 32.2511 34.1975C32.5631 34.3101 32.8317 34.4791 33.0571 34.7045C33.2824 34.9298 33.4601 35.2115 33.5901 35.5495C33.7201 35.8875 33.7851 36.2775 33.7851 36.7195V40.9185H32.5891V36.8235C32.5891 36.2255 32.4201 35.7791 32.0821 35.4845C31.7527 35.1811 31.3671 35.0295 30.9251 35.0295C30.6911 35.0295 30.4657 35.0685 30.2491 35.1465C30.0324 35.2245 29.8417 35.3458 29.6771 35.5105C29.5124 35.6665 29.3781 35.8701 29.2741 36.1215C29.1787 36.3641 29.1311 36.6501 29.1311 36.9795ZM35.7723 41.4905H36.9813C37.042 41.7591 37.2066 42.0191 37.4753 42.2705C37.7526 42.5218 38.1686 42.6475 38.7233 42.6475C39.4166 42.6475 39.928 42.4568 40.2573 42.0755C40.5866 41.6941 40.7513 41.1611 40.7513 40.4765V39.3845H40.7383C40.5303 39.8005 40.24 40.1298 39.8673 40.3725C39.4946 40.6065 39.0353 40.7235 38.4893 40.7235C38.0386 40.7235 37.6313 40.6368 37.2673 40.4635C36.9033 40.2901 36.5956 40.0561 36.3443 39.7615C36.093 39.4581 35.898 39.0985 35.7593 38.6825C35.6293 38.2665 35.5643 37.8245 35.5643 37.3565C35.5643 36.8885 35.6293 36.4508 35.7593 36.0435C35.898 35.6361 36.0886 35.2851 36.3313 34.9905C36.5826 34.6871 36.8903 34.4488 37.2543 34.2755C37.6183 34.1021 38.03 34.0155 38.4893 34.0155C39.0613 34.0155 39.538 34.1411 39.9193 34.3925C40.3093 34.6438 40.5996 34.9818 40.7903 35.4065H40.8033V34.1975H41.9473V40.4115C41.9473 41.4255 41.6656 42.2098 41.1023 42.7645C40.539 43.3191 39.746 43.5965 38.7233 43.5965C38.2813 43.5965 37.887 43.5401 37.5403 43.4275C37.1936 43.3148 36.8946 43.1631 36.6433 42.9725C36.4006 42.7818 36.2056 42.5565 36.0583 42.2965C35.911 42.0451 35.8156 41.7765 35.7723 41.4905ZM36.7603 37.2005V37.5385C36.7603 38.2318 36.9553 38.7735 37.3453 39.1635C37.744 39.5448 38.2163 39.7355 38.7623 39.7355C39.3083 39.7355 39.7763 39.5405 40.1663 39.1505C40.5563 38.7518 40.7513 38.2145 40.7513 37.5385V37.2005C40.7513 36.5245 40.5563 35.9915 40.1663 35.6015C39.7763 35.2115 39.3083 35.0165 38.7623 35.0165C38.2163 35.0165 37.744 35.2071 37.3453 35.5885C36.9553 35.9698 36.7603 36.5071 36.7603 37.2005ZM43.6827 38.9555H44.9177C44.9263 39.3801 45.091 39.6965 45.4117 39.9045C45.7323 40.1038 46.1353 40.2035 46.6207 40.2035C47.0887 40.2035 47.47 40.1081 47.7647 39.9175C48.0593 39.7181 48.2067 39.4451 48.2067 39.0985C48.2067 38.7778 48.0853 38.5438 47.8427 38.3965C47.6087 38.2405 47.288 38.1321 46.8807 38.0715L45.8537 37.9285C45.273 37.8418 44.8007 37.6468 44.4367 37.3435C44.0727 37.0401 43.8907 36.6025 43.8907 36.0305C43.8907 35.4065 44.142 34.9125 44.6447 34.5485C45.156 34.1758 45.8017 33.9895 46.5817 33.9895C47.0063 33.9895 47.3833 34.0458 47.7127 34.1585C48.042 34.2625 48.315 34.4098 48.5317 34.6005C48.757 34.7825 48.9303 34.9991 49.0517 35.2505C49.1817 35.4931 49.251 35.7488 49.2597 36.0175H48.0507C48.0333 35.6795 47.8947 35.4108 47.6347 35.2115C47.3833 35.0035 47.0237 34.8995 46.5557 34.8995C46.105 34.8995 45.7453 34.9991 45.4767 35.1985C45.2167 35.3891 45.0867 35.6361 45.0867 35.9395C45.0867 36.2255 45.182 36.4465 45.3727 36.6025C45.572 36.7498 45.8623 36.8538 46.2437 36.9145L47.2707 37.0575C47.9293 37.1441 48.4493 37.3478 48.8307 37.6685C49.2207 37.9891 49.4157 38.4355 49.4157 39.0075C49.4157 39.6575 49.1513 40.1731 48.6227 40.5545C48.094 40.9271 47.4137 41.1135 46.5817 41.1135C45.7063 41.1135 45.0087 40.9185 44.4887 40.5285C43.9687 40.1298 43.7 39.6055 43.6827 38.9555Z" fill="#8A8B8F"/>
</svg>
