<svg width="34" height="44" viewBox="0 0 34 44" fill="none" xmlns="http://www.w3.org/2000/svg">
<g clip-path="url(#clip0_1_687)">
<g opacity="0.2">
<path fill-rule="evenodd" clip-rule="evenodd" d="M7.61068 15.15C5.06903 15.15 3.00012 17.2176 3.00012 19.7606C3.00012 22.3022 5.06903 24.3711 7.61068 24.3711C10.1523 24.3711 12.2212 22.3022 12.2212 19.7606C12.2212 17.2176 10.1523 15.15 7.61068 15.15Z" fill="#1C1939"/>
</g>
<g opacity="0.5">
<path fill-rule="evenodd" clip-rule="evenodd" d="M21.6247 0C16.4594 0 12.2588 4.20231 12.2588 9.36586C12.2588 14.5312 16.4594 18.7335 21.6247 18.7335C26.7882 18.7335 30.9888 14.5312 30.9888 9.36586C30.9888 4.20231 26.7882 0 21.6247 0Z" fill="#1C1939"/>
</g>
</g>
<path d="M3.53516 30.8455H0.467156V29.7665H7.83816V30.8455H4.77016V38.9185H3.53516V30.8455ZM8.7217 38.9185V32.1975H9.8657V33.3285H9.8787C9.9827 33.0338 10.182 32.7651 10.4767 32.5225C10.7714 32.2798 11.2047 32.1585 11.7767 32.1585H12.6737V33.2635H11.5557C10.923 33.2635 10.4897 33.4325 10.2557 33.7705C10.0304 34.1085 9.9177 34.5245 9.9177 35.0185V38.9185H8.7217ZM15.3316 31.0535H15.2666C15.024 31.0535 14.8246 30.9755 14.6686 30.8195C14.5126 30.6548 14.4346 30.4641 14.4346 30.2475C14.4346 30.0135 14.5126 29.8228 14.6686 29.6755C14.8246 29.5195 15.024 29.4415 15.2666 29.4415H15.3316C15.5656 29.4415 15.7606 29.5195 15.9166 29.6755C16.0726 29.8228 16.1506 30.0135 16.1506 30.2475C16.1506 30.4641 16.0726 30.6548 15.9166 30.8195C15.7606 30.9755 15.5656 31.0535 15.3316 31.0535ZM13.6156 33.1725V32.1975H15.8906V38.9185H14.6946V33.1725H13.6156ZM18.1465 38.9185V29.2725H19.3425V33.3935H19.3555C19.5635 32.9688 19.8582 32.6351 20.2395 32.3925C20.6295 32.1411 21.0932 32.0155 21.6305 32.0155C22.0898 32.0155 22.5058 32.1065 22.8785 32.2885C23.2512 32.4705 23.5632 32.7218 23.8145 33.0425C24.0745 33.3545 24.2695 33.7271 24.3995 34.1605C24.5382 34.5938 24.6075 35.0575 24.6075 35.5515C24.6075 36.0455 24.5382 36.5135 24.3995 36.9555C24.2695 37.3888 24.0788 37.7658 23.8275 38.0865C23.5762 38.3985 23.2642 38.6455 22.8915 38.8275C22.5188 39.0095 22.0985 39.1005 21.6305 39.1005C21.0672 39.1005 20.5862 38.9705 20.1875 38.7105C19.7888 38.4418 19.4942 38.0865 19.3035 37.6445H19.2905V38.9185H18.1465ZM23.3985 35.8115V35.3175C23.3985 34.5895 23.1992 34.0261 22.8005 33.6275C22.4018 33.2201 21.9252 33.0165 21.3705 33.0165C20.8158 33.0165 20.3392 33.2245 19.9405 33.6405C19.5418 34.0478 19.3425 34.6068 19.3425 35.3175V35.8115C19.3425 36.5135 19.5418 37.0725 19.9405 37.4885C20.3392 37.8958 20.8158 38.0995 21.3705 38.0995C21.9252 38.0995 22.4018 37.9001 22.8005 37.5015C23.1992 37.1028 23.3985 36.5395 23.3985 35.8115ZM29.2923 39.1005C28.7723 39.1005 28.3087 39.0095 27.9013 38.8275C27.494 38.6455 27.1517 38.3941 26.8743 38.0735C26.6057 37.7528 26.3977 37.3758 26.2503 36.9425C26.1117 36.5091 26.0423 36.0455 26.0423 35.5515C26.0423 35.0575 26.116 34.5938 26.2633 34.1605C26.4107 33.7271 26.6187 33.3545 26.8873 33.0425C27.1647 32.7218 27.5027 32.4705 27.9013 32.2885C28.3087 32.1065 28.7593 32.0155 29.2533 32.0155C29.756 32.0155 30.2023 32.1021 30.5923 32.2755C30.9823 32.4488 31.3073 32.6871 31.5673 32.9905C31.836 33.2938 32.0397 33.6535 32.1783 34.0695C32.317 34.4768 32.3863 34.9188 32.3863 35.3955V35.8245H27.2383V35.8635C27.2383 36.5655 27.4333 37.1245 27.8233 37.5405C28.222 37.9565 28.7203 38.1645 29.3183 38.1645C29.8383 38.1645 30.2413 38.0388 30.5273 37.7875C30.822 37.5361 30.9953 37.2631 31.0473 36.9685H32.2563C32.135 37.5925 31.81 38.1038 31.2813 38.5025C30.7613 38.9011 30.0983 39.1005 29.2923 39.1005ZM29.2533 32.9385C28.7333 32.9385 28.2827 33.1205 27.9013 33.4845C27.52 33.8398 27.3033 34.3338 27.2513 34.9665H31.1773C31.1513 34.3165 30.9607 33.8181 30.6053 33.4715C30.25 33.1161 29.7993 32.9385 29.2533 32.9385Z" fill="#8A8B8F"/>
<defs>
<clipPath id="clip0_1_687">
<rect width="28" height="25.2" fill="white" transform="translate(3)"/>
</clipPath>
</defs>
</svg>
