<svg width="55" height="55" viewBox="0 0 55 55" fill="none" xmlns="http://www.w3.org/2000/svg">
<path opacity="0.9" fill-rule="evenodd" clip-rule="evenodd" d="M26.73 6.6C15.29 6.6 5.82999 16.06 5.82999 27.5C5.82999 38.94 15.29 48.4 26.73 48.4C38.17 48.4 47.63 38.94 47.63 27.5C47.63 16.06 38.17 6.6 26.73 6.6Z" fill="white"/>
<path fill-rule="evenodd" clip-rule="evenodd" d="M26.8066 33.7122C30.7791 33.7122 33.9877 30.5036 33.9877 26.5311C34.1405 22.5586 30.9319 19.3501 26.8066 19.3501C22.8341 19.3501 19.6255 22.5586 19.6255 26.5311C19.6255 30.5036 22.8341 33.7122 26.8066 33.7122Z" fill="#392F4E"/>
<path fill-rule="evenodd" clip-rule="evenodd" d="M37.3982 43.3394C36.9388 41.6588 36.0199 40.1309 34.1822 38.9086C32.6508 37.839 30.2006 37.0751 26.8315 37.0751C20.2464 37.0751 17.0305 40.1309 16.1116 43.3394C15.8053 44.2562 16.0957 45.3798 16.8677 45.8286C19.7359 47.495 23.1561 48.3814 26.8315 48.3814C30.3537 48.3814 33.8153 47.452 36.6165 45.8668C37.3918 45.4259 37.7045 44.2562 37.3982 43.3394Z" fill="#281F80" fill-opacity="0.4"/>
</svg>
